<svg xmlns="http://www.w3.org/2000/svg" viewBox="0 0 35 13"><defs><style>.cls-1{fill:#231f20;}.cls-2{fill:none;}</style></defs><g id="Layer_2" data-name="Layer 2"><g id="Layer_1-2" data-name="Layer 1"><path class="cls-1" d="M.1,6.13,1,3.25a31.83,31.83,0,0,1,4.69,2c-.26-2.45-.39-4.13-.41-5h3c0,1.34-.2,3-.47,5a36,36,0,0,1,4.79-1.95l.93,2.88a25.2,25.2,0,0,1-5,1.14A34.7,34.7,0,0,1,12,11.11L9.51,12.83Q8.34,11.23,6.73,8.47A33.21,33.21,0,0,1,4.1,12.83L1.7,11.11A40.85,40.85,0,0,1,5.07,7.27Q2.46,6.76.1,6.13Z"/><rect class="cls-2" width="35" height="13"/></g></g></svg>